<?xml version="1.0" encoding="UTF-8"?>
<svg id="Logotipo_Circular" data-name="Logotipo Circular" xmlns="http://www.w3.org/2000/svg" xmlns:xlink="http://www.w3.org/1999/xlink" viewBox="0 0 1080 1080">
  <defs>
    <style>
      .cls-1 {
        fill: url(#Gradiente_sem_nome_3);
      }

      .cls-2 {
        fill: url(#Gradiente_sem_nome_3-2);
      }

      .cls-3 {
        fill: url(#Gradiente_sem_nome_3-3);
      }

      .cls-4 {
        fill: url(#Gradiente_sem_nome_3-4);
      }

      .cls-5 {
        fill: url(#Gradiente_sem_nome_3-5);
      }

      .cls-6 {
        fill: url(#Gradiente_sem_nome_3-6);
      }

      .cls-7 {
        fill: url(#Gradiente_sem_nome_3-7);
      }

      .cls-8 {
        fill: url(#Gradiente_sem_nome_3-8);
      }

      .cls-9 {
        fill: url(#Gradiente_sem_nome_3-9);
      }

      .cls-10 {
        fill: #90531f;
      }

      .cls-11 {
        fill: url(#Gradiente_sem_nome_3-24);
      }

      .cls-12 {
        fill: url(#Gradiente_sem_nome_3-25);
      }

      .cls-13 {
        fill: url(#Gradiente_sem_nome_3-20);
      }

      .cls-14 {
        fill: url(#Gradiente_sem_nome_3-22);
      }

      .cls-15 {
        fill: url(#Gradiente_sem_nome_3-23);
      }

      .cls-16 {
        fill: url(#Gradiente_sem_nome_3-26);
      }

      .cls-17 {
        fill: url(#Gradiente_sem_nome_3-21);
      }

      .cls-18 {
        fill: url(#Gradiente_sem_nome_3-15);
      }

      .cls-19 {
        fill: url(#Gradiente_sem_nome_3-19);
      }

      .cls-20 {
        fill: url(#Gradiente_sem_nome_3-11);
      }

      .cls-21 {
        fill: url(#Gradiente_sem_nome_3-12);
      }

      .cls-22 {
        fill: url(#Gradiente_sem_nome_3-10);
      }

      .cls-23 {
        fill: url(#Gradiente_sem_nome_3-17);
      }

      .cls-24 {
        fill: url(#Gradiente_sem_nome_3-18);
      }

      .cls-25 {
        fill: url(#Gradiente_sem_nome_3-13);
      }

      .cls-26 {
        fill: url(#Gradiente_sem_nome_3-16);
      }

      .cls-27 {
        fill: url(#Gradiente_sem_nome_3-14);
      }
    </style>
    <linearGradient id="Gradiente_sem_nome_3" data-name="Gradiente sem nome 3" x1="477.28" y1="441.96" x2="491.88" y2="441.96" gradientUnits="userSpaceOnUse">
      <stop offset="0" stop-color="#e8a26b"/>
      <stop offset="1" stop-color="#fdecdd"/>
    </linearGradient>
    <linearGradient id="Gradiente_sem_nome_3-2" data-name="Gradiente sem nome 3" x1="500.07" x2="511.73" xlink:href="#Gradiente_sem_nome_3"/>
    <linearGradient id="Gradiente_sem_nome_3-3" data-name="Gradiente sem nome 3" x1="504.96" y1="433.04" x2="508.85" y2="433.04" xlink:href="#Gradiente_sem_nome_3"/>
    <linearGradient id="Gradiente_sem_nome_3-4" data-name="Gradiente sem nome 3" x1="517.77" x2="530.17" xlink:href="#Gradiente_sem_nome_3"/>
    <linearGradient id="Gradiente_sem_nome_3-5" data-name="Gradiente sem nome 3" x1="535.78" y1="441.96" x2="550.7" y2="441.96" xlink:href="#Gradiente_sem_nome_3"/>
    <linearGradient id="Gradiente_sem_nome_3-6" data-name="Gradiente sem nome 3" x1="558.26" x2="571.15" xlink:href="#Gradiente_sem_nome_3"/>
    <linearGradient id="Gradiente_sem_nome_3-7" data-name="Gradiente sem nome 3" x1="578.05" y1="441.96" x2="592.97" y2="441.96" xlink:href="#Gradiente_sem_nome_3"/>
    <linearGradient id="Gradiente_sem_nome_3-8" data-name="Gradiente sem nome 3" x1="417.95" y1="641.37" x2="429.83" y2="641.37" xlink:href="#Gradiente_sem_nome_3"/>
    <linearGradient id="Gradiente_sem_nome_3-9" data-name="Gradiente sem nome 3" x1="436.06" y1="641.37" x2="450.98" y2="641.37" xlink:href="#Gradiente_sem_nome_3"/>
    <linearGradient id="Gradiente_sem_nome_3-10" data-name="Gradiente sem nome 3" x1="458.54" y1="641.37" x2="471.21" y2="641.37" xlink:href="#Gradiente_sem_nome_3"/>
    <linearGradient id="Gradiente_sem_nome_3-11" data-name="Gradiente sem nome 3" x1="488.14" y1="641.37" x2="499.81" y2="641.37" xlink:href="#Gradiente_sem_nome_3"/>
    <linearGradient id="Gradiente_sem_nome_3-12" data-name="Gradiente sem nome 3" x1="507.39" y1="641.37" x2="516.45" y2="641.37" xlink:href="#Gradiente_sem_nome_3"/>
    <linearGradient id="Gradiente_sem_nome_3-13" data-name="Gradiente sem nome 3" x1="523.14" y1="641.37" x2="524.75" y2="641.37" xlink:href="#Gradiente_sem_nome_3"/>
    <linearGradient id="Gradiente_sem_nome_3-14" data-name="Gradiente sem nome 3" x1="531.4" y1="641.37" x2="545.5" y2="641.37" xlink:href="#Gradiente_sem_nome_3"/>
    <linearGradient id="Gradiente_sem_nome_3-15" data-name="Gradiente sem nome 3" x1="552.16" y1="641.37" x2="564.41" y2="641.37" xlink:href="#Gradiente_sem_nome_3"/>
    <linearGradient id="Gradiente_sem_nome_3-16" data-name="Gradiente sem nome 3" x1="572.61" y1="641.37" x2="584.27" y2="641.37" xlink:href="#Gradiente_sem_nome_3"/>
    <linearGradient id="Gradiente_sem_nome_3-17" data-name="Gradiente sem nome 3" x1="601.47" y1="641.37" x2="614.15" y2="641.37" xlink:href="#Gradiente_sem_nome_3"/>
    <linearGradient id="Gradiente_sem_nome_3-18" data-name="Gradiente sem nome 3" x1="621.46" y1="641.37" x2="633.12" y2="641.37" xlink:href="#Gradiente_sem_nome_3"/>
    <linearGradient id="Gradiente_sem_nome_3-19" data-name="Gradiente sem nome 3" x1="640.71" y1="641.37" x2="642.31" y2="641.37" xlink:href="#Gradiente_sem_nome_3"/>
    <linearGradient id="Gradiente_sem_nome_3-20" data-name="Gradiente sem nome 3" x1="649.76" y1="641.37" x2="662.05" y2="641.37" xlink:href="#Gradiente_sem_nome_3"/>
    <linearGradient id="Gradiente_sem_nome_3-21" data-name="Gradiente sem nome 3" x1="287.88" y1="551.06" x2="369.25" y2="551.06" xlink:href="#Gradiente_sem_nome_3"/>
    <linearGradient id="Gradiente_sem_nome_3-22" data-name="Gradiente sem nome 3" x1="435.29" y1="477.08" x2="475.61" y2="477.08" xlink:href="#Gradiente_sem_nome_3"/>
    <linearGradient id="Gradiente_sem_nome_3-23" data-name="Gradiente sem nome 3" x1="404.88" y1="551.13" x2="504.09" y2="551.13" xlink:href="#Gradiente_sem_nome_3"/>
    <linearGradient id="Gradiente_sem_nome_3-24" data-name="Gradiente sem nome 3" x1="537.96" y1="551.06" x2="617.22" y2="551.06" xlink:href="#Gradiente_sem_nome_3"/>
    <linearGradient id="Gradiente_sem_nome_3-25" data-name="Gradiente sem nome 3" x1="652.08" y1="551.06" x2="731.33" y2="551.06" xlink:href="#Gradiente_sem_nome_3"/>
    <linearGradient id="Gradiente_sem_nome_3-26" data-name="Gradiente sem nome 3" x1="771.18" y1="551.06" x2="792.12" y2="551.06" xlink:href="#Gradiente_sem_nome_3"/>
  </defs>
  <rect class="cls-10" x="-10" y="-10" width="1100" height="1100"/>
  <g>
    <g>
      <path class="cls-1" d="M489.65,438.63c.1-.26.19-.51.28-.76.09-.25.17-.47.23-.65h.15c-.01.22-.02.5-.03.85,0,.35-.01.7-.02,1.06,0,.36,0,.68,0,.95v8.51h1.62v-13.27h-2.42l-3.98,9.11c-.08.21-.17.44-.27.71s-.2.53-.3.78c-.1.26-.18.48-.26.68h-.12c-.06-.19-.15-.42-.25-.69-.1-.26-.21-.53-.31-.79-.1-.26-.2-.5-.29-.71l-3.97-9.09h-2.44v13.27h1.57v-8.51c0-.28,0-.6-.01-.95,0-.35-.01-.69-.02-1.04,0-.34,0-.63,0-.88h.14c.07.21.14.43.22.67s.17.48.27.73c.1.25.2.49.3.71l4.08,9.27h1.47l4.08-9.27c.09-.21.18-.44.28-.7Z"/>
      <polygon class="cls-2" points="511.73 447.2 501.68 447.2 501.68 442.48 510.63 442.48 510.63 441.09 501.68 441.09 501.68 436.72 511.6 436.72 511.6 435.32 500.07 435.32 500.07 448.59 511.73 448.59 511.73 447.2"/>
      <polygon class="cls-3" points="508.85 431.84 508.85 431.76 506.94 431.76 504.96 434.32 506.34 434.32 508.85 431.84"/>
      <polygon class="cls-4" points="517.77 436.74 523.15 436.74 523.15 448.59 524.77 448.59 524.77 436.74 530.17 436.74 530.17 435.32 517.77 435.32 517.77 436.74"/>
      <path class="cls-5" d="M547.24,435.86c-1.11-.52-2.44-.77-4.01-.77s-2.86.26-3.99.77c-1.12.52-1.98,1.28-2.57,2.29-.59,1.01-.89,2.28-.89,3.8s.3,2.77.89,3.79,1.45,1.79,2.57,2.3c1.12.52,2.45.77,3.99.77s2.9-.26,4.01-.77c1.11-.52,1.96-1.28,2.56-2.3.6-1.02.9-2.28.9-3.79s-.3-2.79-.9-3.8c-.6-1.01-1.45-1.78-2.56-2.29ZM549.03,442.17c0,.93-.14,1.73-.43,2.39-.28.66-.69,1.21-1.21,1.63-.52.43-1.14.74-1.84.94-.7.2-1.47.3-2.31.3s-1.63-.1-2.33-.3c-.7-.2-1.31-.51-1.84-.94s-.93-.97-1.21-1.63c-.28-.66-.43-1.46-.43-2.39v-.43c0-.93.14-1.73.43-2.4.28-.67.69-1.22,1.21-1.63.52-.42,1.13-.73,1.84-.93.7-.2,1.48-.3,2.33-.3s1.61.1,2.31.3c.7.2,1.31.51,1.84.93.52.42.92.96,1.21,1.63.28.67.43,1.47.43,2.4v.43Z"/>
      <path class="cls-6" d="M567.83,436.04c-1.06-.48-2.35-.72-3.86-.72h-5.71v13.27h5.71c1.51,0,2.8-.24,3.86-.73s1.88-1.22,2.46-2.2c.57-.98.86-2.22.86-3.71s-.29-2.75-.86-3.73c-.57-.98-1.39-1.71-2.46-2.19ZM569.46,442.17c0,.9-.14,1.67-.41,2.31s-.65,1.16-1.15,1.56c-.5.4-1.08.69-1.76.88-.68.19-1.42.28-2.23.28h-4.04v-10.49h4.04c.82,0,1.57.09,2.24.28.67.19,1.25.48,1.75.88.5.4.88.92,1.15,1.56.27.64.41,1.42.41,2.33v.41Z"/>
      <path class="cls-7" d="M589.51,435.86c-1.11-.52-2.44-.77-4-.77s-2.86.26-3.99.77c-1.12.52-1.98,1.28-2.57,2.29-.59,1.01-.89,2.28-.89,3.8s.3,2.77.89,3.79,1.45,1.79,2.57,2.3c1.12.52,2.45.77,3.99.77s2.9-.26,4-.77c1.11-.52,1.96-1.28,2.56-2.3s.9-2.28.9-3.79-.3-2.79-.9-3.8c-.6-1.01-1.45-1.78-2.56-2.29ZM591.31,442.17c0,.93-.14,1.73-.43,2.39-.28.66-.69,1.21-1.21,1.63-.52.43-1.13.74-1.84.94-.7.2-1.47.3-2.31.3s-1.63-.1-2.33-.3c-.7-.2-1.32-.51-1.84-.94s-.93-.97-1.21-1.63c-.28-.66-.43-1.46-.43-2.39v-.43c0-.93.14-1.73.43-2.4.28-.67.69-1.22,1.21-1.63.52-.42,1.13-.73,1.84-.93.7-.2,1.48-.3,2.33-.3s1.61.1,2.31.3c.7.2,1.32.51,1.84.93.52.42.93.96,1.21,1.63.28.67.43,1.47.43,2.4v.43Z"/>
      <g>
        <path class="cls-8" d="M428.01,635.25c-.59-.34-1.32-.51-2.19-.51h-7.87v13.27h1.61v-5.22h6.29c.8,0,1.5-.17,2.1-.52s1.06-.83,1.39-1.44c.33-.61.49-1.31.49-2.1s-.15-1.46-.46-2.06-.76-1.07-1.35-1.41ZM427.5,640.66c-.46.48-1.09.73-1.91.73h-6.04v-5.26h6.04c.57,0,1.04.11,1.42.32.38.21.67.52.87.91.2.39.3.85.3,1.38,0,.8-.23,1.44-.69,1.93Z"/>
        <path class="cls-9" d="M447.51,635.27c-1.11-.52-2.44-.77-4-.77s-2.86.26-3.99.77c-1.12.52-1.98,1.28-2.57,2.29-.59,1.01-.89,2.28-.89,3.8s.3,2.77.89,3.79,1.45,1.79,2.57,2.3c1.12.52,2.45.77,3.99.77s2.9-.26,4-.77c1.11-.52,1.96-1.28,2.56-2.3s.9-2.28.9-3.79-.3-2.79-.9-3.8c-.6-1.01-1.45-1.78-2.56-2.29ZM449.31,641.58c0,.93-.14,1.73-.43,2.39-.28.66-.69,1.21-1.21,1.63-.52.43-1.13.74-1.84.94-.7.2-1.47.3-2.31.3s-1.63-.1-2.33-.3c-.7-.2-1.32-.51-1.84-.94s-.93-.97-1.21-1.63c-.28-.66-.43-1.46-.43-2.39v-.43c0-.93.14-1.73.43-2.4.28-.67.69-1.22,1.21-1.63.52-.42,1.13-.73,1.84-.93.7-.2,1.48-.3,2.33-.3s1.61.1,2.31.3c.7.2,1.32.51,1.84.93.52.42.93.96,1.21,1.63.28.67.43,1.47.43,2.4v.43Z"/>
        <path class="cls-22" d="M470.16,640.9c.43-.66.65-1.43.65-2.32,0-.75-.15-1.41-.44-1.98s-.73-1.03-1.32-1.36c-.58-.33-1.3-.5-2.17-.5h-8.34v13.27h1.61v-5.42h6.58l2.69,5.42h1.8l-2.84-5.71c.76-.27,1.36-.74,1.79-1.39ZM466.63,641.19h-6.48v-5.07h6.48c.56,0,1.02.1,1.39.3.37.2.66.48.86.85.2.37.3.8.3,1.31,0,.79-.23,1.42-.68,1.9s-1.08.72-1.88.72Z"/>
        <polygon class="cls-20" points="489.75 641.89 498.71 641.89 498.71 640.5 489.75 640.5 489.75 636.13 499.67 636.13 499.67 634.73 488.14 634.73 488.14 648 499.81 648 499.81 646.61 489.75 646.61 489.75 641.89"/>
        <polygon class="cls-21" points="509 634.73 507.39 634.73 507.39 648 516.45 648 516.45 646.57 509 646.57 509 634.73"/>
        <rect class="cls-25" x="523.14" y="634.73" width="1.61" height="13.27"/>
        <path class="cls-27" d="M537.44,634.73l-6.04,13.27h1.66l1.55-3.44h7.58l1.55,3.44h1.76l-6.04-13.27h-2.03ZM541.56,643.17h-6.33l1.95-4.33c.09-.21.2-.47.34-.78.14-.32.28-.64.43-.99.15-.34.27-.65.38-.92h.15c.08.18.17.4.27.65.1.25.21.51.32.77.11.26.21.51.31.74.1.23.18.4.24.53l1.93,4.33Z"/>
        <path class="cls-18" d="M562.84,643.75v1.55h-.12c-.09-.14-.21-.3-.36-.47-.15-.17-.29-.35-.43-.52-.14-.17-.26-.31-.37-.42l-7.8-9.15h-1.61v13.27h1.57v-10.76h.12c.14.18.33.42.57.72.24.3.45.55.65.75l7.89,9.29h1.45v-13.27h-1.57v9.02Z"/>
        <polygon class="cls-26" points="574.21 641.89 583.17 641.89 583.17 640.5 574.21 640.5 574.21 636.13 584.14 636.13 584.14 634.73 572.61 634.73 572.61 648 584.27 648 584.27 646.61 574.21 646.61 574.21 641.89"/>
        <path class="cls-23" d="M613.09,640.9c.43-.66.65-1.43.65-2.32,0-.75-.15-1.41-.45-1.98s-.73-1.03-1.32-1.36c-.58-.33-1.3-.5-2.17-.5h-8.34v13.27h1.61v-5.42h6.58l2.69,5.42h1.8l-2.84-5.71c.76-.27,1.36-.74,1.79-1.39ZM609.56,641.19h-6.48v-5.07h6.48c.55,0,1.02.1,1.39.3.37.2.66.48.86.85.2.37.3.8.3,1.31,0,.79-.23,1.42-.68,1.9s-1.08.72-1.88.72Z"/>
        <polygon class="cls-24" points="623.06 641.89 632.02 641.89 632.02 640.5 623.06 640.5 623.06 636.13 632.99 636.13 632.99 634.73 621.46 634.73 621.46 648 633.12 648 633.12 646.61 623.06 646.61 623.06 641.89"/>
        <rect class="cls-19" x="640.71" y="634.73" width="1.61" height="13.27"/>
        <path class="cls-13" d="M661.62,642.68c-.28-.43-.67-.78-1.16-1.06-.49-.28-1.04-.51-1.65-.69s-1.24-.33-1.89-.45c-.65-.13-1.27-.26-1.88-.39-.61-.13-1.15-.28-1.64-.46-.49-.18-.88-.41-1.17-.68-.29-.27-.44-.62-.44-1.04s.16-.77.48-1.07.8-.54,1.44-.71c.64-.17,1.45-.25,2.43-.25.79,0,1.46.1,2.03.29.57.19,1.01.45,1.32.77.31.32.46.69.46,1.1v.39h1.61v-.31c0-.53-.11-1.01-.33-1.45-.22-.44-.56-.82-1.02-1.15-.46-.33-1.03-.58-1.73-.75-.7-.17-1.52-.26-2.46-.26-1.06,0-1.96.09-2.7.26-.74.17-1.35.42-1.82.73-.47.32-.82.69-1.03,1.11-.22.43-.33.89-.33,1.39,0,.62.14,1.14.43,1.57.28.43.67.77,1.16,1.04s1.04.48,1.65.66c.61.17,1.24.32,1.89.45.64.12,1.27.25,1.89.39.61.14,1.16.3,1.64.49.48.19.87.44,1.16.74.29.3.44.69.44,1.17,0,.37-.09.7-.28.97-.19.27-.44.5-.74.68-.31.18-.66.32-1.04.43-.39.1-.79.17-1.2.21-.41.04-.81.06-1.2.06-.9,0-1.7-.09-2.39-.27-.69-.18-1.23-.45-1.61-.81-.38-.36-.57-.81-.57-1.35,0-.1,0-.2,0-.28,0-.08.02-.16.03-.22h-1.63c-.01.05-.02.11-.02.16v.18c0,.8.17,1.45.5,1.96.34.51.8.91,1.38,1.21.59.3,1.26.51,2.01.63.75.12,1.54.18,2.35.18,1.19,0,2.23-.13,3.14-.39.91-.26,1.62-.68,2.13-1.27.51-.59.76-1.36.76-2.31,0-.63-.14-1.16-.43-1.59Z"/>
      </g>
    </g>
    <g>
      <path class="cls-17" d="M358.14,588.99c-.38-1.18-.74-2.32-1.13-3.39l-6.46-17.14c-3.32-8.8-7.56-13.82-14.11-16.39,14.27-4.71,22.34-14.08,22.34-26.16,0-27.26-26.22-27.26-43.56-27.26h-27.33l2.46,2.21c2.28,2.06,3.09,5.3,3.09,12.41v75.46c0,7.3-.78,10.47-3.09,12.55l-2.46,2.21h20.66l-2.46-2.21c-2.31-2.08-3.09-5.25-3.09-12.55v-33.58h18.4c10.18,0,15.32,3.98,19.61,15.21l6.61,17.15c1.25,3.23,4.19,10.78,1.37,13.86l-1.95,2.12h22.21l-3.92-2.35c-4.11-2.47-5.74-7.6-7.19-12.13ZM302.99,504l12.07.13c19.95.14,33.03,1.73,33.03,21.78s-18.11,23.89-33.3,23.89h-11.8v-45.79Z"/>
      <polygon class="cls-14" points="468.37 472.15 435.29 478.13 435.29 482.02 475.61 482.02 475.61 479.38 468.37 472.15"/>
      <path class="cls-15" d="M454.48,497.8c-28.28,0-49.61,22.96-49.61,53.4s21.33,53.26,49.61,53.26,49.61-22.9,49.61-53.26-21.33-53.4-49.61-53.4ZM454.48,598.97c-22.19,0-38.92-20.6-38.92-47.91s16.37-47.77,38.92-47.77,38.92,20.09,38.92,47.77-16.73,47.91-38.92,47.91Z"/>
      <path class="cls-11" d="M537.96,511.57h2.49l.34-.73c1.82-3.86,11.38-6.86,18.39-6.86h12.36v84.73c0,7.3-.78,10.47-3.09,12.55l-2.46,2.21h20.94l-2.46-2.21c-2.31-2.08-3.09-5.25-3.09-12.55l-.14-84.73h14.61c7.07,0,16.71,3,18.53,6.86l.34.73h2.49v-12.93h-79.26v12.93Z"/>
      <path class="cls-12" d="M652.08,511.57h2.49l.34-.73c1.82-3.86,11.38-6.86,18.39-6.86h12.36v84.73c0,7.3-.78,10.47-3.09,12.55l-2.46,2.21h20.94l-2.46-2.21c-2.31-2.08-3.09-5.25-3.09-12.55l-.14-84.73h14.61c7.07,0,16.71,3,18.53,6.86l.34.73h2.49v-12.93h-79.26v12.93Z"/>
      <path class="cls-16" d="M786.57,588.72v-75.32c0-7.3.78-10.47,3.09-12.55l2.46-2.21h-20.94l2.46,2.21c2.31,2.08,3.09,5.25,3.09,12.55v75.32c0,7.3-.78,10.47-3.09,12.55l-2.46,2.21h20.94l-2.46-2.21c-2.31-2.08-3.09-5.25-3.09-12.55Z"/>
    </g>
  </g>
</svg>