<?xml version="1.0" encoding="UTF-8"?>
<svg id="Pattern" xmlns="http://www.w3.org/2000/svg" xmlns:xlink="http://www.w3.org/1999/xlink" viewBox="0 0 1080 1080">
  <defs>
    <style>
      .cls-1 {
        fill: none;
      }

      .cls-2 {
        fill: #eae4e1;
      }

      .cls-3 {
        fill: #90531f;
      }

      .cls-4 {
        clip-path: url(#clippath);
      }
    </style>
    <clipPath id="clippath">
      <rect class="cls-1" x="76.8" y="328.71" width="926.4" height="422.58"/>
    </clipPath>
  </defs>
  <rect class="cls-2" x="-10" y="-10" width="1100" height="1100"/>
  <g class="cls-4">
    <g>
      <g id="_Repetição_de_grade_" data-name="&amp;lt;Repetição de grade&amp;gt;">
        <path class="cls-3" d="M148.06,403.97l-11.74,17.2c-9.78,14.33-29.41,18.03-43.74,8.25-14.33-9.79-18.03-29.41-8.25-43.74l4.85-7.1c4.93-7.23,13.3-10.72,21.45-9.82l-6.88,44.13,11.58,7.91,4.76-30.49,6.56,4.48c11.36,7.75,26.9,4.82,34.66-6.54l4.85-7.1c10.43-15.27,6.48-36.18-8.79-46.61-15.27-10.43-36.18-6.48-46.61,8.79l-11.76,17.22,1.7,1.16,11.76-17.22c9.79-14.33,29.4-18.03,43.74-8.25,14.33,9.79,18.03,29.4,8.25,43.74l-4.85,7.1c-4.93,7.23-13.3,10.72-21.45,9.82l6.88-44.13-11.58-7.91-4.75,30.49-6.56-4.48c-11.36-7.75-26.9-4.82-34.66,6.54l-4.85,7.1c-10.43,15.27-6.48,36.18,8.79,46.61,15.27,10.43,36.18,6.48,46.61-8.79l11.74-17.2-1.7-1.16ZM128.34,377.62l-2.23,14.3-5.67-3.87,2.23-14.3,5.67,3.87Z"/>
        <path class="cls-3" d="M229.06,427.47l-11.74,17.2c-9.78,14.33-29.41,18.03-43.74,8.25-14.33-9.79-18.03-29.41-8.25-43.74l4.85-7.1c4.93-7.23,13.3-10.72,21.45-9.82l-6.88,44.13,11.58,7.91,4.76-30.49,6.56,4.48c11.36,7.75,26.9,4.82,34.66-6.54l4.85-7.1c10.43-15.27,6.48-36.18-8.79-46.61-15.27-10.43-36.18-6.48-46.61,8.79l-11.76,17.22,1.7,1.16,11.76-17.22c9.79-14.33,29.4-18.03,43.74-8.25,14.33,9.79,18.03,29.4,8.25,43.74l-4.85,7.1c-4.93,7.23-13.3,10.72-21.45,9.82l6.88-44.13-11.58-7.91-4.75,30.49-6.56-4.48c-11.36-7.75-26.9-4.82-34.66,6.54l-4.85,7.1c-10.43,15.27-6.48,36.18,8.79,46.61,15.27,10.43,36.18,6.48,46.61-8.79l11.74-17.2-1.7-1.16ZM209.34,401.12l-2.23,14.3-5.67-3.87,2.23-14.3,5.67,3.87Z"/>
      </g>
      <g id="_Repetição_de_grade_-2" data-name="&amp;lt;Repetição de grade&amp;gt;">
        <path class="cls-3" d="M334.24,403.97l-11.74,17.2c-9.78,14.33-29.41,18.03-43.74,8.25-14.33-9.79-18.03-29.41-8.25-43.74l4.85-7.1c4.93-7.23,13.3-10.72,21.45-9.82l-6.88,44.13,11.58,7.91,4.76-30.49,6.56,4.48c11.36,7.75,26.9,4.82,34.66-6.54l4.85-7.1c10.43-15.27,6.48-36.18-8.79-46.61-15.27-10.43-36.18-6.48-46.61,8.79l-11.76,17.22,1.7,1.16,11.76-17.22c9.79-14.33,29.4-18.03,43.74-8.25,14.33,9.79,18.03,29.4,8.25,43.74l-4.85,7.1c-4.93,7.23-13.3,10.72-21.45,9.82l6.88-44.13-11.58-7.91-4.75,30.49-6.56-4.48c-11.36-7.75-26.9-4.82-34.66,6.54l-4.85,7.1c-10.43,15.27-6.48,36.18,8.79,46.61,15.27,10.43,36.18,6.48,46.61-8.79l11.74-17.2-1.7-1.16ZM314.51,377.62l-2.23,14.3-5.67-3.87,2.23-14.3,5.67,3.87Z"/>
        <path class="cls-3" d="M415.24,427.47l-11.74,17.2c-9.78,14.33-29.41,18.03-43.74,8.25-14.33-9.79-18.03-29.41-8.25-43.74l4.85-7.1c4.93-7.23,13.3-10.72,21.45-9.82l-6.88,44.13,11.58,7.91,4.76-30.49,6.56,4.48c11.36,7.75,26.9,4.82,34.66-6.54l4.85-7.1c10.43-15.27,6.48-36.18-8.79-46.61-15.27-10.43-36.18-6.48-46.61,8.79l-11.76,17.22,1.7,1.16,11.76-17.22c9.79-14.33,29.4-18.03,43.74-8.25,14.33,9.79,18.03,29.4,8.25,43.74l-4.85,7.1c-4.93,7.23-13.3,10.72-21.45,9.82l6.88-44.13-11.58-7.91-4.75,30.49-6.56-4.48c-11.36-7.75-26.9-4.82-34.66,6.54l-4.85,7.1c-10.43,15.27-6.48,36.18,8.79,46.61,15.27,10.43,36.18,6.48,46.61-8.79l11.74-17.2-1.7-1.16ZM395.52,401.12l-2.23,14.3-5.67-3.87,2.23-14.3,5.67,3.87Z"/>
      </g>
      <g id="_Repetição_de_grade_-3" data-name="&amp;lt;Repetição de grade&amp;gt;">
        <path class="cls-3" d="M520.41,403.97l-11.74,17.2c-9.78,14.33-29.41,18.03-43.74,8.25-14.33-9.79-18.03-29.41-8.25-43.74l4.85-7.1c4.93-7.23,13.3-10.72,21.45-9.82l-6.88,44.13,11.58,7.91,4.76-30.49,6.56,4.48c11.36,7.75,26.9,4.82,34.66-6.54l4.85-7.1c10.43-15.27,6.48-36.18-8.79-46.61-15.27-10.43-36.18-6.48-46.61,8.79l-11.76,17.22,1.7,1.16,11.76-17.22c9.79-14.33,29.4-18.03,43.74-8.25,14.33,9.79,18.03,29.4,8.25,43.74l-4.85,7.1c-4.93,7.23-13.3,10.72-21.45,9.82l6.88-44.13-11.58-7.91-4.75,30.49-6.56-4.48c-11.36-7.75-26.9-4.82-34.66,6.54l-4.85,7.1c-10.43,15.27-6.48,36.18,8.79,46.61,15.27,10.43,36.18,6.48,46.61-8.79l11.74-17.2-1.7-1.16ZM500.69,377.62l-2.23,14.3-5.67-3.87,2.23-14.3,5.67,3.87Z"/>
        <path class="cls-3" d="M601.41,427.47l-11.74,17.2c-9.78,14.33-29.41,18.03-43.74,8.25-14.33-9.79-18.03-29.41-8.25-43.74l4.85-7.1c4.93-7.23,13.3-10.72,21.45-9.82l-6.88,44.13,11.58,7.91,4.76-30.49,6.56,4.48c11.36,7.75,26.9,4.82,34.66-6.54l4.85-7.1c10.43-15.27,6.48-36.18-8.79-46.61-15.27-10.43-36.18-6.48-46.61,8.79l-11.76,17.22,1.7,1.16,11.76-17.22c9.79-14.33,29.4-18.03,43.74-8.25,14.33,9.79,18.03,29.4,8.25,43.74l-4.85,7.1c-4.93,7.23-13.3,10.72-21.45,9.82l6.88-44.13-11.58-7.91-4.75,30.49-6.56-4.48c-11.36-7.75-26.9-4.82-34.66,6.54l-4.85,7.1c-10.43,15.27-6.48,36.18,8.79,46.61,15.27,10.43,36.18,6.48,46.61-8.79l11.74-17.2-1.7-1.16ZM581.69,401.12l-2.23,14.3-5.67-3.87,2.23-14.3,5.67,3.87Z"/>
      </g>
      <g id="_Repetição_de_grade_-4" data-name="&amp;lt;Repetição de grade&amp;gt;">
        <path class="cls-3" d="M706.58,403.97l-11.74,17.2c-9.78,14.33-29.41,18.03-43.74,8.25-14.33-9.79-18.03-29.41-8.25-43.74l4.85-7.1c4.93-7.23,13.3-10.72,21.45-9.82l-6.88,44.13,11.58,7.91,4.76-30.49,6.56,4.48c11.36,7.75,26.9,4.82,34.66-6.54l4.85-7.1c10.43-15.27,6.48-36.18-8.79-46.61-15.27-10.43-36.18-6.48-46.61,8.79l-11.76,17.22,1.7,1.16,11.76-17.22c9.79-14.33,29.4-18.03,43.74-8.25,14.33,9.79,18.03,29.4,8.25,43.74l-4.85,7.1c-4.93,7.23-13.3,10.72-21.45,9.82l6.88-44.13-11.58-7.91-4.75,30.49-6.56-4.48c-11.36-7.75-26.9-4.82-34.66,6.54l-4.85,7.1c-10.43,15.27-6.48,36.18,8.79,46.61,15.27,10.43,36.18,6.48,46.61-8.79l11.74-17.2-1.7-1.16ZM686.86,377.62l-2.23,14.3-5.67-3.87,2.23-14.3,5.67,3.87Z"/>
        <path class="cls-3" d="M787.58,427.47l-11.74,17.2c-9.78,14.33-29.41,18.03-43.74,8.25-14.33-9.79-18.03-29.41-8.25-43.74l4.85-7.1c4.93-7.23,13.3-10.72,21.45-9.82l-6.88,44.13,11.58,7.91,4.76-30.49,6.56,4.48c11.36,7.75,26.9,4.82,34.66-6.54l4.85-7.1c10.43-15.27,6.48-36.18-8.79-46.61-15.27-10.43-36.18-6.48-46.61,8.79l-11.76,17.22,1.7,1.16,11.76-17.22c9.79-14.33,29.4-18.03,43.74-8.25,14.33,9.79,18.03,29.4,8.25,43.74l-4.85,7.1c-4.93,7.23-13.3,10.72-21.45,9.82l6.88-44.13-11.58-7.91-4.75,30.49-6.56-4.48c-11.36-7.75-26.9-4.82-34.66,6.54l-4.85,7.1c-10.43,15.27-6.48,36.18,8.79,46.61,15.27,10.43,36.18,6.48,46.61-8.79l11.74-17.2-1.7-1.16ZM767.86,401.12l-2.23,14.3-5.67-3.87,2.23-14.3,5.67,3.87Z"/>
      </g>
      <g id="_Repetição_de_grade_-5" data-name="&amp;lt;Repetição de grade&amp;gt;">
        <path class="cls-3" d="M892.76,403.97l-11.74,17.2c-9.78,14.33-29.41,18.03-43.74,8.25-14.33-9.79-18.03-29.41-8.25-43.74l4.85-7.1c4.93-7.23,13.3-10.72,21.45-9.82l-6.88,44.13,11.58,7.91,4.76-30.49,6.56,4.48c11.36,7.75,26.9,4.82,34.66-6.54l4.85-7.1c10.43-15.27,6.48-36.18-8.79-46.61-15.27-10.43-36.18-6.48-46.61,8.79l-11.76,17.22,1.7,1.16,11.76-17.22c9.79-14.33,29.4-18.03,43.74-8.25,14.33,9.79,18.03,29.4,8.25,43.74l-4.85,7.1c-4.93,7.23-13.3,10.72-21.45,9.82l6.88-44.13-11.58-7.91-4.75,30.49-6.56-4.48c-11.36-7.75-26.9-4.82-34.66,6.54l-4.85,7.1c-10.43,15.27-6.48,36.18,8.79,46.61,15.27,10.43,36.18,6.48,46.61-8.79l11.74-17.2-1.7-1.16ZM873.03,377.62l-2.23,14.3-5.67-3.87,2.23-14.3,5.67,3.87Z"/>
        <path class="cls-3" d="M973.76,427.47l-11.74,17.2c-9.78,14.33-29.41,18.03-43.74,8.25-14.33-9.79-18.03-29.41-8.25-43.74l4.85-7.1c4.93-7.23,13.3-10.72,21.45-9.82l-6.88,44.13,11.58,7.91,4.76-30.49,6.56,4.48c11.36,7.75,26.9,4.82,34.66-6.54l4.85-7.1c10.43-15.27,6.48-36.18-8.79-46.61-15.27-10.43-36.18-6.48-46.61,8.79l-11.76,17.22,1.7,1.16,11.76-17.22c9.79-14.33,29.4-18.03,43.74-8.25,14.33,9.79,18.03,29.4,8.25,43.74l-4.85,7.1c-4.93,7.23-13.3,10.72-21.45,9.82l6.88-44.13-11.58-7.91-4.75,30.49-6.56-4.48c-11.36-7.75-26.9-4.82-34.66,6.54l-4.85,7.1c-10.43,15.27-6.48,36.18,8.79,46.61,15.27,10.43,36.18,6.48,46.61-8.79l11.74-17.2-1.7-1.16ZM954.04,401.12l-2.23,14.3-5.67-3.87,2.23-14.3,5.67,3.87Z"/>
      </g>
      <g id="_Repetição_de_grade_-6" data-name="&amp;lt;Repetição de grade&amp;gt;">
        <path class="cls-3" d="M148.06,545.71l-11.74,17.2c-9.78,14.33-29.41,18.03-43.74,8.25-14.33-9.79-18.03-29.41-8.25-43.74l4.85-7.1c4.93-7.23,13.3-10.72,21.45-9.82l-6.88,44.13,11.58,7.91,4.76-30.49,6.56,4.48c11.36,7.75,26.9,4.82,34.66-6.54l4.85-7.1c10.43-15.27,6.48-36.18-8.79-46.61-15.27-10.43-36.18-6.48-46.61,8.79l-11.76,17.22,1.7,1.16,11.76-17.22c9.79-14.33,29.4-18.03,43.74-8.25,14.33,9.79,18.03,29.4,8.25,43.74l-4.85,7.1c-4.93,7.23-13.3,10.72-21.45,9.82l6.88-44.13-11.58-7.91-4.75,30.49-6.56-4.48c-11.36-7.75-26.9-4.82-34.66,6.54l-4.85,7.1c-10.43,15.27-6.48,36.18,8.79,46.61,15.27,10.43,36.18,6.48,46.61-8.79l11.74-17.2-1.7-1.16ZM128.34,519.36l-2.23,14.3-5.67-3.87,2.23-14.3,5.67,3.87Z"/>
        <path class="cls-3" d="M229.06,569.22l-11.74,17.2c-9.78,14.33-29.41,18.03-43.74,8.25-14.33-9.79-18.03-29.41-8.25-43.74l4.85-7.1c4.93-7.23,13.3-10.72,21.45-9.82l-6.88,44.13,11.58,7.91,4.76-30.49,6.56,4.48c11.36,7.75,26.9,4.82,34.66-6.54l4.85-7.1c10.43-15.27,6.48-36.18-8.79-46.61-15.27-10.43-36.18-6.48-46.61,8.79l-11.76,17.22,1.7,1.16,11.76-17.22c9.79-14.33,29.4-18.03,43.74-8.25,14.33,9.79,18.03,29.4,8.25,43.74l-4.85,7.1c-4.93,7.23-13.3,10.72-21.45,9.82l6.88-44.13-11.58-7.91-4.75,30.49-6.56-4.48c-11.36-7.75-26.9-4.82-34.66,6.54l-4.85,7.1c-10.43,15.27-6.48,36.18,8.79,46.61,15.27,10.43,36.18,6.48,46.61-8.79l11.74-17.2-1.7-1.16ZM209.34,542.86l-2.23,14.3-5.67-3.87,2.23-14.3,5.67,3.87Z"/>
      </g>
      <g id="_Repetição_de_grade_-7" data-name="&amp;lt;Repetição de grade&amp;gt;">
        <path class="cls-3" d="M334.24,545.71l-11.74,17.2c-9.78,14.33-29.41,18.03-43.74,8.25-14.33-9.79-18.03-29.41-8.25-43.74l4.85-7.1c4.93-7.23,13.3-10.72,21.45-9.82l-6.88,44.13,11.58,7.91,4.76-30.49,6.56,4.48c11.36,7.75,26.9,4.82,34.66-6.54l4.85-7.1c10.43-15.27,6.48-36.18-8.79-46.61-15.27-10.43-36.18-6.48-46.61,8.79l-11.76,17.22,1.7,1.16,11.76-17.22c9.79-14.33,29.4-18.03,43.74-8.25,14.33,9.79,18.03,29.4,8.25,43.74l-4.85,7.1c-4.93,7.23-13.3,10.72-21.45,9.82l6.88-44.13-11.58-7.91-4.75,30.49-6.56-4.48c-11.36-7.75-26.9-4.82-34.66,6.54l-4.85,7.1c-10.43,15.27-6.48,36.18,8.79,46.61,15.27,10.43,36.18,6.48,46.61-8.79l11.74-17.2-1.7-1.16ZM314.51,519.36l-2.23,14.3-5.67-3.87,2.23-14.3,5.67,3.87Z"/>
        <path class="cls-3" d="M415.24,569.22l-11.74,17.2c-9.78,14.33-29.41,18.03-43.74,8.25-14.33-9.79-18.03-29.41-8.25-43.74l4.85-7.1c4.93-7.23,13.3-10.72,21.45-9.82l-6.88,44.13,11.58,7.91,4.76-30.49,6.56,4.48c11.36,7.75,26.9,4.82,34.66-6.54l4.85-7.1c10.43-15.27,6.48-36.18-8.79-46.61-15.27-10.43-36.18-6.48-46.61,8.79l-11.76,17.22,1.7,1.16,11.76-17.22c9.79-14.33,29.4-18.03,43.74-8.25,14.33,9.79,18.03,29.4,8.25,43.74l-4.85,7.1c-4.93,7.23-13.3,10.72-21.45,9.82l6.88-44.13-11.58-7.91-4.75,30.49-6.56-4.48c-11.36-7.75-26.9-4.82-34.66,6.54l-4.85,7.1c-10.43,15.27-6.48,36.18,8.79,46.61,15.27,10.43,36.18,6.48,46.61-8.79l11.74-17.2-1.7-1.16ZM395.52,542.86l-2.23,14.3-5.67-3.87,2.23-14.3,5.67,3.87Z"/>
      </g>
      <g id="_Repetição_de_grade_-8" data-name="&amp;lt;Repetição de grade&amp;gt;">
        <path class="cls-3" d="M520.41,545.71l-11.74,17.2c-9.78,14.33-29.41,18.03-43.74,8.25-14.33-9.79-18.03-29.41-8.25-43.74l4.85-7.1c4.93-7.23,13.3-10.72,21.45-9.82l-6.88,44.13,11.58,7.91,4.76-30.49,6.56,4.48c11.36,7.75,26.9,4.82,34.66-6.54l4.85-7.1c10.43-15.27,6.48-36.18-8.79-46.61-15.27-10.43-36.18-6.48-46.61,8.79l-11.76,17.22,1.7,1.16,11.76-17.22c9.79-14.33,29.4-18.03,43.74-8.25,14.33,9.79,18.03,29.4,8.25,43.74l-4.85,7.1c-4.93,7.23-13.3,10.72-21.45,9.82l6.88-44.13-11.58-7.91-4.75,30.49-6.56-4.48c-11.36-7.75-26.9-4.82-34.66,6.54l-4.85,7.1c-10.43,15.27-6.48,36.18,8.79,46.61,15.27,10.43,36.18,6.48,46.61-8.79l11.74-17.2-1.7-1.16ZM500.69,519.36l-2.23,14.3-5.67-3.87,2.23-14.3,5.67,3.87Z"/>
        <path class="cls-3" d="M601.41,569.22l-11.74,17.2c-9.78,14.33-29.41,18.03-43.74,8.25-14.33-9.79-18.03-29.41-8.25-43.74l4.85-7.1c4.93-7.23,13.3-10.72,21.45-9.82l-6.88,44.13,11.58,7.91,4.76-30.49,6.56,4.48c11.36,7.75,26.9,4.82,34.66-6.54l4.85-7.1c10.43-15.27,6.48-36.18-8.79-46.61-15.27-10.43-36.18-6.48-46.61,8.79l-11.76,17.22,1.7,1.16,11.76-17.22c9.79-14.33,29.4-18.03,43.74-8.25,14.33,9.79,18.03,29.4,8.25,43.74l-4.85,7.1c-4.93,7.23-13.3,10.72-21.45,9.82l6.88-44.13-11.58-7.91-4.75,30.49-6.56-4.48c-11.36-7.75-26.9-4.82-34.66,6.54l-4.85,7.1c-10.43,15.27-6.48,36.18,8.79,46.61,15.27,10.43,36.18,6.48,46.61-8.79l11.74-17.2-1.7-1.16ZM581.69,542.86l-2.23,14.3-5.67-3.87,2.23-14.3,5.67,3.87Z"/>
      </g>
      <g id="_Repetição_de_grade_-9" data-name="&amp;lt;Repetição de grade&amp;gt;">
        <path class="cls-3" d="M706.58,545.71l-11.74,17.2c-9.78,14.33-29.41,18.03-43.74,8.25-14.33-9.79-18.03-29.41-8.25-43.74l4.85-7.1c4.93-7.23,13.3-10.72,21.45-9.82l-6.88,44.13,11.58,7.91,4.76-30.49,6.56,4.48c11.36,7.75,26.9,4.82,34.66-6.54l4.85-7.1c10.43-15.27,6.48-36.18-8.79-46.61-15.27-10.43-36.18-6.48-46.61,8.79l-11.76,17.22,1.7,1.16,11.76-17.22c9.79-14.33,29.4-18.03,43.74-8.25,14.33,9.79,18.03,29.4,8.25,43.74l-4.85,7.1c-4.93,7.23-13.3,10.72-21.45,9.82l6.88-44.13-11.58-7.91-4.75,30.49-6.56-4.48c-11.36-7.75-26.9-4.82-34.66,6.54l-4.85,7.1c-10.43,15.27-6.48,36.18,8.79,46.61,15.27,10.43,36.18,6.48,46.61-8.79l11.74-17.2-1.7-1.16ZM686.86,519.36l-2.23,14.3-5.67-3.87,2.23-14.3,5.67,3.87Z"/>
        <path class="cls-3" d="M787.58,569.22l-11.74,17.2c-9.78,14.33-29.41,18.03-43.74,8.25-14.33-9.79-18.03-29.41-8.25-43.74l4.85-7.1c4.93-7.23,13.3-10.72,21.45-9.82l-6.88,44.13,11.58,7.91,4.76-30.49,6.56,4.48c11.36,7.75,26.9,4.82,34.66-6.54l4.85-7.1c10.43-15.27,6.48-36.18-8.79-46.61-15.27-10.43-36.18-6.48-46.61,8.79l-11.76,17.22,1.7,1.16,11.76-17.22c9.79-14.33,29.4-18.03,43.74-8.25,14.33,9.79,18.03,29.4,8.25,43.74l-4.85,7.1c-4.93,7.23-13.3,10.72-21.45,9.82l6.88-44.13-11.58-7.91-4.75,30.49-6.56-4.48c-11.36-7.75-26.9-4.82-34.66,6.54l-4.85,7.1c-10.43,15.27-6.48,36.18,8.79,46.61,15.27,10.43,36.18,6.48,46.61-8.79l11.74-17.2-1.7-1.16ZM767.86,542.86l-2.23,14.3-5.67-3.87,2.23-14.3,5.67,3.87Z"/>
      </g>
      <g id="_Repetição_de_grade_-10" data-name="&amp;lt;Repetição de grade&amp;gt;">
        <path class="cls-3" d="M892.76,545.71l-11.74,17.2c-9.78,14.33-29.41,18.03-43.74,8.25-14.33-9.79-18.03-29.41-8.25-43.74l4.85-7.1c4.93-7.23,13.3-10.72,21.45-9.82l-6.88,44.13,11.58,7.91,4.76-30.49,6.56,4.48c11.36,7.75,26.9,4.82,34.66-6.54l4.85-7.1c10.43-15.27,6.48-36.18-8.79-46.61-15.27-10.43-36.18-6.48-46.61,8.79l-11.76,17.22,1.7,1.16,11.76-17.22c9.79-14.33,29.4-18.03,43.74-8.25,14.33,9.79,18.03,29.4,8.25,43.74l-4.85,7.1c-4.93,7.23-13.3,10.72-21.45,9.82l6.88-44.13-11.58-7.91-4.75,30.49-6.56-4.48c-11.36-7.75-26.9-4.82-34.66,6.54l-4.85,7.1c-10.43,15.27-6.48,36.18,8.79,46.61,15.27,10.43,36.18,6.48,46.61-8.79l11.74-17.2-1.7-1.16ZM873.03,519.36l-2.23,14.3-5.67-3.87,2.23-14.3,5.67,3.87Z"/>
        <path class="cls-3" d="M973.76,569.22l-11.74,17.2c-9.78,14.33-29.41,18.03-43.74,8.25-14.33-9.79-18.03-29.41-8.25-43.74l4.85-7.1c4.93-7.23,13.3-10.72,21.45-9.82l-6.88,44.13,11.58,7.91,4.76-30.49,6.56,4.48c11.36,7.75,26.9,4.82,34.66-6.54l4.85-7.1c10.43-15.27,6.48-36.18-8.79-46.61-15.27-10.43-36.18-6.48-46.61,8.79l-11.76,17.22,1.7,1.16,11.76-17.22c9.79-14.33,29.4-18.03,43.74-8.25,14.33,9.79,18.03,29.4,8.25,43.74l-4.85,7.1c-4.93,7.23-13.3,10.72-21.45,9.82l6.88-44.13-11.58-7.91-4.75,30.49-6.56-4.48c-11.36-7.75-26.9-4.82-34.66,6.54l-4.85,7.1c-10.43,15.27-6.48,36.18,8.79,46.61,15.27,10.43,36.18,6.48,46.61-8.79l11.74-17.2-1.7-1.16ZM954.04,542.86l-2.23,14.3-5.67-3.87,2.23-14.3,5.67,3.87Z"/>
      </g>
      <g id="_Repetição_de_grade_-11" data-name="&amp;lt;Repetição de grade&amp;gt;">
        <path class="cls-3" d="M148.06,687.46l-11.74,17.2c-9.78,14.33-29.41,18.03-43.74,8.25-14.33-9.79-18.03-29.41-8.25-43.74l4.85-7.1c4.93-7.23,13.3-10.72,21.45-9.82l-6.88,44.13,11.58,7.91,4.76-30.49,6.56,4.48c11.36,7.75,26.9,4.82,34.66-6.54l4.85-7.1c10.43-15.27,6.48-36.18-8.79-46.61-15.27-10.43-36.18-6.48-46.61,8.79l-11.76,17.22,1.7,1.16,11.76-17.22c9.79-14.33,29.4-18.03,43.74-8.25,14.33,9.79,18.03,29.4,8.25,43.74l-4.85,7.1c-4.93,7.23-13.3,10.72-21.45,9.82l6.88-44.13-11.58-7.91-4.75,30.49-6.56-4.48c-11.36-7.75-26.9-4.82-34.66,6.54l-4.85,7.1c-10.43,15.27-6.48,36.18,8.79,46.61,15.27,10.43,36.18,6.48,46.61-8.79l11.74-17.2-1.7-1.16ZM128.34,661.1l-2.23,14.3-5.67-3.87,2.23-14.3,5.67,3.87Z"/>
        <path class="cls-3" d="M229.06,710.96l-11.74,17.2c-9.78,14.33-29.41,18.03-43.74,8.25-14.33-9.79-18.03-29.41-8.25-43.74l4.85-7.1c4.93-7.23,13.3-10.72,21.45-9.82l-6.88,44.13,11.58,7.91,4.76-30.49,6.56,4.48c11.36,7.75,26.9,4.82,34.66-6.54l4.85-7.1c10.43-15.27,6.48-36.18-8.79-46.61-15.27-10.43-36.18-6.48-46.61,8.79l-11.76,17.22,1.7,1.16,11.76-17.22c9.79-14.33,29.4-18.03,43.74-8.25,14.33,9.79,18.03,29.4,8.25,43.74l-4.85,7.1c-4.93,7.23-13.3,10.72-21.45,9.82l6.88-44.13-11.58-7.91-4.75,30.49-6.56-4.48c-11.36-7.75-26.9-4.82-34.66,6.54l-4.85,7.1c-10.43,15.27-6.48,36.18,8.79,46.61,15.27,10.43,36.18,6.48,46.61-8.79l11.74-17.2-1.7-1.16ZM209.34,684.6l-2.23,14.3-5.67-3.87,2.23-14.3,5.67,3.87Z"/>
      </g>
      <g id="_Repetição_de_grade_-12" data-name="&amp;lt;Repetição de grade&amp;gt;">
        <path class="cls-3" d="M334.24,687.46l-11.74,17.2c-9.78,14.33-29.41,18.03-43.74,8.25-14.33-9.79-18.03-29.41-8.25-43.74l4.85-7.1c4.93-7.23,13.3-10.72,21.45-9.82l-6.88,44.13,11.58,7.91,4.76-30.49,6.56,4.48c11.36,7.75,26.9,4.82,34.66-6.54l4.85-7.1c10.43-15.27,6.48-36.18-8.79-46.61-15.27-10.43-36.18-6.48-46.61,8.79l-11.76,17.22,1.7,1.16,11.76-17.22c9.79-14.33,29.4-18.03,43.74-8.25,14.33,9.79,18.03,29.4,8.25,43.74l-4.85,7.1c-4.93,7.23-13.3,10.72-21.45,9.82l6.88-44.13-11.58-7.91-4.75,30.49-6.56-4.48c-11.36-7.75-26.9-4.82-34.66,6.54l-4.85,7.1c-10.43,15.27-6.48,36.18,8.79,46.61,15.27,10.43,36.18,6.48,46.61-8.79l11.74-17.2-1.7-1.16ZM314.51,661.1l-2.23,14.3-5.67-3.87,2.23-14.3,5.67,3.87Z"/>
        <path class="cls-3" d="M415.24,710.96l-11.74,17.2c-9.78,14.33-29.41,18.03-43.74,8.25-14.33-9.79-18.03-29.41-8.25-43.74l4.85-7.1c4.93-7.23,13.3-10.72,21.45-9.82l-6.88,44.13,11.58,7.91,4.76-30.49,6.56,4.48c11.36,7.75,26.9,4.82,34.66-6.54l4.85-7.1c10.43-15.27,6.48-36.18-8.79-46.61-15.27-10.43-36.18-6.48-46.61,8.79l-11.76,17.22,1.7,1.16,11.76-17.22c9.79-14.33,29.4-18.03,43.74-8.25,14.33,9.79,18.03,29.4,8.25,43.74l-4.85,7.1c-4.93,7.23-13.3,10.72-21.45,9.82l6.88-44.13-11.58-7.91-4.75,30.49-6.56-4.48c-11.36-7.75-26.9-4.82-34.66,6.54l-4.85,7.1c-10.43,15.27-6.48,36.18,8.79,46.61,15.27,10.43,36.18,6.48,46.61-8.79l11.74-17.2-1.7-1.16ZM395.52,684.6l-2.23,14.3-5.67-3.87,2.23-14.3,5.67,3.87Z"/>
      </g>
      <g id="_Repetição_de_grade_-13" data-name="&amp;lt;Repetição de grade&amp;gt;">
        <path class="cls-3" d="M520.41,687.46l-11.74,17.2c-9.78,14.33-29.41,18.03-43.74,8.25-14.33-9.79-18.03-29.41-8.25-43.74l4.85-7.1c4.93-7.23,13.3-10.72,21.45-9.82l-6.88,44.13,11.58,7.91,4.76-30.49,6.56,4.48c11.36,7.75,26.9,4.82,34.66-6.54l4.85-7.1c10.43-15.27,6.48-36.18-8.79-46.61-15.27-10.43-36.18-6.48-46.61,8.79l-11.76,17.22,1.7,1.16,11.76-17.22c9.79-14.33,29.4-18.03,43.74-8.25,14.33,9.79,18.03,29.4,8.25,43.74l-4.85,7.1c-4.93,7.23-13.3,10.72-21.45,9.82l6.88-44.13-11.58-7.91-4.75,30.49-6.56-4.48c-11.36-7.75-26.9-4.82-34.66,6.54l-4.85,7.1c-10.43,15.27-6.48,36.18,8.79,46.61,15.27,10.43,36.18,6.48,46.61-8.79l11.74-17.2-1.7-1.16ZM500.69,661.1l-2.23,14.3-5.67-3.87,2.23-14.3,5.67,3.87Z"/>
        <path class="cls-3" d="M601.41,710.96l-11.74,17.2c-9.78,14.33-29.41,18.03-43.74,8.25-14.33-9.79-18.03-29.41-8.25-43.74l4.85-7.1c4.93-7.23,13.3-10.72,21.45-9.82l-6.88,44.13,11.58,7.91,4.76-30.49,6.56,4.48c11.36,7.75,26.9,4.82,34.66-6.54l4.85-7.1c10.43-15.27,6.48-36.18-8.79-46.61-15.27-10.43-36.18-6.48-46.61,8.79l-11.76,17.22,1.7,1.16,11.76-17.22c9.79-14.33,29.4-18.03,43.74-8.25,14.33,9.79,18.03,29.4,8.25,43.74l-4.85,7.1c-4.93,7.23-13.3,10.72-21.45,9.82l6.88-44.13-11.58-7.91-4.75,30.49-6.56-4.48c-11.36-7.75-26.9-4.82-34.66,6.54l-4.85,7.1c-10.43,15.27-6.48,36.18,8.79,46.61,15.27,10.43,36.18,6.48,46.61-8.79l11.74-17.2-1.7-1.16ZM581.69,684.6l-2.23,14.3-5.67-3.87,2.23-14.3,5.67,3.87Z"/>
      </g>
      <g id="_Repetição_de_grade_-14" data-name="&amp;lt;Repetição de grade&amp;gt;">
        <path class="cls-3" d="M706.58,687.46l-11.74,17.2c-9.78,14.33-29.41,18.03-43.74,8.25-14.33-9.79-18.03-29.41-8.25-43.74l4.85-7.1c4.93-7.23,13.3-10.72,21.45-9.82l-6.88,44.13,11.58,7.91,4.76-30.49,6.56,4.48c11.36,7.75,26.9,4.82,34.66-6.54l4.85-7.1c10.43-15.27,6.48-36.18-8.79-46.61-15.27-10.43-36.18-6.48-46.61,8.79l-11.76,17.22,1.7,1.16,11.76-17.22c9.79-14.33,29.4-18.03,43.74-8.25,14.33,9.79,18.03,29.4,8.25,43.74l-4.85,7.1c-4.93,7.23-13.3,10.72-21.45,9.82l6.88-44.13-11.58-7.91-4.75,30.49-6.56-4.48c-11.36-7.75-26.9-4.82-34.66,6.54l-4.85,7.1c-10.43,15.27-6.48,36.18,8.79,46.61,15.27,10.43,36.18,6.48,46.61-8.79l11.74-17.2-1.7-1.16ZM686.86,661.1l-2.23,14.3-5.67-3.87,2.23-14.3,5.67,3.87Z"/>
        <path class="cls-3" d="M787.58,710.96l-11.74,17.2c-9.78,14.33-29.41,18.03-43.74,8.25-14.33-9.79-18.03-29.41-8.25-43.74l4.85-7.1c4.93-7.23,13.3-10.72,21.45-9.82l-6.88,44.13,11.58,7.91,4.76-30.49,6.56,4.48c11.36,7.75,26.9,4.82,34.66-6.54l4.85-7.1c10.43-15.27,6.48-36.18-8.79-46.61-15.27-10.43-36.18-6.48-46.61,8.79l-11.76,17.22,1.7,1.16,11.76-17.22c9.79-14.33,29.4-18.03,43.74-8.25,14.33,9.79,18.03,29.4,8.25,43.74l-4.85,7.1c-4.93,7.23-13.3,10.72-21.45,9.82l6.88-44.13-11.58-7.91-4.75,30.49-6.56-4.48c-11.36-7.75-26.9-4.82-34.66,6.54l-4.85,7.1c-10.43,15.27-6.48,36.18,8.79,46.61,15.27,10.43,36.18,6.48,46.61-8.79l11.74-17.2-1.7-1.16ZM767.86,684.6l-2.23,14.3-5.67-3.87,2.23-14.3,5.67,3.87Z"/>
      </g>
      <g id="_Repetição_de_grade_-15" data-name="&amp;lt;Repetição de grade&amp;gt;">
        <path class="cls-3" d="M892.76,687.46l-11.74,17.2c-9.78,14.33-29.41,18.03-43.74,8.25-14.33-9.79-18.03-29.41-8.25-43.74l4.85-7.1c4.93-7.23,13.3-10.72,21.45-9.82l-6.88,44.13,11.58,7.91,4.76-30.49,6.56,4.48c11.36,7.75,26.9,4.82,34.66-6.54l4.85-7.1c10.43-15.27,6.48-36.18-8.79-46.61-15.27-10.43-36.18-6.48-46.61,8.79l-11.76,17.22,1.7,1.16,11.76-17.22c9.79-14.33,29.4-18.03,43.74-8.25,14.33,9.79,18.03,29.4,8.25,43.74l-4.85,7.1c-4.93,7.23-13.3,10.72-21.45,9.82l6.88-44.13-11.58-7.91-4.75,30.49-6.56-4.48c-11.36-7.75-26.9-4.82-34.66,6.54l-4.85,7.1c-10.43,15.27-6.48,36.18,8.79,46.61,15.27,10.43,36.18,6.48,46.61-8.79l11.74-17.2-1.7-1.16ZM873.03,661.1l-2.23,14.3-5.67-3.87,2.23-14.3,5.67,3.87Z"/>
        <path class="cls-3" d="M973.76,710.96l-11.74,17.2c-9.78,14.33-29.41,18.03-43.74,8.25-14.33-9.79-18.03-29.41-8.25-43.74l4.85-7.1c4.93-7.23,13.3-10.72,21.45-9.82l-6.88,44.13,11.58,7.91,4.76-30.49,6.56,4.48c11.36,7.75,26.9,4.82,34.66-6.54l4.85-7.1c10.43-15.27,6.48-36.18-8.79-46.61-15.27-10.43-36.18-6.48-46.61,8.79l-11.76,17.22,1.7,1.16,11.76-17.22c9.79-14.33,29.4-18.03,43.74-8.25,14.33,9.79,18.03,29.4,8.25,43.74l-4.85,7.1c-4.93,7.23-13.3,10.72-21.45,9.82l6.88-44.13-11.58-7.91-4.75,30.49-6.56-4.48c-11.36-7.75-26.9-4.82-34.66,6.54l-4.85,7.1c-10.43,15.27-6.48,36.18,8.79,46.61,15.27,10.43,36.18,6.48,46.61-8.79l11.74-17.2-1.7-1.16ZM954.04,684.6l-2.23,14.3-5.67-3.87,2.23-14.3,5.67,3.87Z"/>
      </g>
    </g>
  </g>
</svg>