<?xml version="1.0" encoding="UTF-8"?>
<svg id="_Ícone" data-name="Ícone" xmlns="http://www.w3.org/2000/svg" viewBox="0 0 1080 1080">
  <defs>
    <style>
      .cls-1 {
        fill: #eae4e1;
      }

      .cls-2 {
        fill: #90531f;
      }
    </style>
  </defs>
  <rect class="cls-1" x="-9.25" y="-10" width="1100" height="1100"/>
  <path class="cls-2" d="M631.97,552.02v60.86c0,50.71-41.26,91.97-91.97,91.97s-91.97-41.26-91.97-91.97v-25.13c0-25.57,14.44-47.8,35.58-59.04l56.1,117.84h40.97l-38.76-81.41h23.2c40.18,0,72.87-32.69,72.87-72.87v-25.13c0-54.04-43.96-98-98-98s-98,43.96-98,98v60.94h6.03v-60.94c0-50.71,41.25-91.97,91.97-91.97s91.97,41.25,91.97,91.97v25.13c0,25.57-14.44,47.8-35.58,59.04l-56.1-117.84h-40.97l38.76,81.42h-23.21c-40.18,0-72.87,32.69-72.87,72.87v25.13c0,54.04,43.97,98,98,98s98-43.96,98-98v-60.86h-6.03ZM540.95,520.9l18.18,38.2h-20.08l-18.18-38.2h20.08Z"/>
</svg>