<?xml version="1.0" encoding="UTF-8"?>
<svg id="Logotipo_Alternativo" data-name="Logotipo Alternativo" xmlns="http://www.w3.org/2000/svg" viewBox="0 0 1080 1080">
  <defs>
    <style>
      .cls-1 {
        fill: #eae4e1;
      }

      .cls-2 {
        fill: #b38c6b;
      }
    </style>
  </defs>
  <rect class="cls-2" x="-10" y="-10" width="1100" height="1100"/>
  <g>
    <path class="cls-1" d="M574.01,456.64v22.51c0,18.75-15.26,34.01-34.01,34.01s-34.01-15.26-34.01-34.01v-9.29c0-9.46,5.34-17.68,13.16-21.83l20.75,43.58h15.15l-14.33-30.11h8.58c14.86,0,26.95-12.09,26.95-26.95v-9.29c0-19.98-16.26-36.24-36.24-36.24s-36.24,16.26-36.24,36.24v22.54h2.23v-22.54c0-18.76,15.26-34.01,34.01-34.01s34.01,15.26,34.01,34.01v9.29c0,9.46-5.34,17.68-13.16,21.83l-20.75-43.58h-15.15l14.34,30.11h-8.58c-14.86,0-26.95,12.09-26.95,26.95v9.29c0,19.98,16.26,36.24,36.24,36.24s36.24-16.26,36.24-36.24v-22.51h-2.23ZM540.35,445.14l6.73,14.13h-7.43l-6.73-14.13h7.43Z"/>
    <g>
      <g>
        <path class="cls-1" d="M488.72,676.34c-.67-.39-1.49-.58-2.47-.58h-8.88v14.97h1.81v-5.89h7.09c.9,0,1.69-.2,2.37-.59s1.2-.93,1.57-1.63c.37-.69.56-1.48.56-2.37s-.17-1.65-.52-2.32-.86-1.21-1.53-1.59ZM488.14,682.45c-.52.55-1.23.82-2.15.82h-6.81v-5.94h6.81c.64,0,1.18.12,1.6.36.43.24.76.58.98,1.03.22.44.34.96.34,1.56,0,.9-.26,1.63-.77,2.17Z"/>
        <path class="cls-1" d="M510.71,676.37c-1.25-.58-2.76-.87-4.52-.87s-3.23.29-4.5.87c-1.27.58-2.23,1.44-2.9,2.59-.67,1.14-1,2.57-1,4.29s.33,3.13,1,4.28c.67,1.15,1.64,2.02,2.9,2.6,1.27.58,2.76.87,4.5.87s3.27-.29,4.52-.87c1.25-.58,2.22-1.45,2.89-2.6s1.01-2.58,1.01-4.28-.34-3.15-1.01-4.29c-.68-1.14-1.64-2-2.89-2.59ZM512.74,683.48c0,1.05-.16,1.95-.48,2.7-.32.75-.77,1.36-1.36,1.84-.59.48-1.28.83-2.07,1.06-.79.23-1.66.34-2.61.34s-1.84-.11-2.63-.34c-.79-.23-1.48-.58-2.07-1.06s-1.04-1.09-1.36-1.84c-.32-.75-.48-1.65-.48-2.7v-.48c0-1.05.16-1.95.48-2.71.32-.76.77-1.37,1.36-1.84.59-.47,1.28-.82,2.07-1.05.79-.23,1.67-.34,2.63-.34s1.81.11,2.61.34c.79.23,1.48.57,2.07,1.05.59.47,1.04,1.09,1.36,1.84.32.76.48,1.66.48,2.71v.48Z"/>
        <path class="cls-1" d="M536.26,682.72c.49-.74.73-1.61.73-2.62,0-.84-.17-1.59-.5-2.24s-.83-1.16-1.48-1.54c-.65-.38-1.47-.57-2.44-.57h-9.41v14.97h1.81v-6.11h7.42l3.03,6.11h2.03l-3.21-6.44c.86-.31,1.53-.83,2.02-1.57ZM532.27,683.05h-7.31v-5.72h7.31c.63,0,1.15.11,1.57.34.42.23.74.55.97.96.23.41.34.91.34,1.47,0,.89-.25,1.6-.76,2.14s-1.21.81-2.12.81Z"/>
        <polygon class="cls-1" points="558.35 683.83 568.46 683.83 568.46 682.26 558.35 682.26 558.35 677.33 569.55 677.33 569.55 675.76 556.54 675.76 556.54 690.73 569.7 690.73 569.7 689.16 558.35 689.16 558.35 683.83"/>
        <polygon class="cls-1" points="580.07 675.76 578.26 675.76 578.26 690.73 588.47 690.73 588.47 689.11 580.07 689.11 580.07 675.76"/>
        <rect class="cls-1" x="596.02" y="675.76" width="1.81" height="14.97"/>
        <path class="cls-1" d="M612.15,675.76l-6.81,14.97h1.88l1.75-3.88h8.55l1.75,3.88h1.99l-6.81-14.97h-2.29ZM616.8,685.27h-7.14l2.2-4.89c.1-.23.23-.53.38-.88.15-.36.31-.73.48-1.11.17-.39.31-.73.43-1.04h.17c.09.2.19.45.31.73.12.28.24.57.36.87.12.3.24.57.35.83.11.25.2.45.27.6l2.18,4.89Z"/>
        <path class="cls-1" d="M640.8,685.93v1.75h-.13c-.1-.16-.24-.34-.4-.53-.17-.2-.33-.39-.49-.59-.16-.2-.3-.35-.42-.47l-8.79-10.32h-1.81v14.97h1.77v-12.13h.13c.16.2.37.47.64.81.27.33.51.62.73.85l8.9,10.48h1.64v-14.97h-1.77v10.17Z"/>
        <polygon class="cls-1" points="653.63 683.83 663.74 683.83 663.74 682.26 653.63 682.26 653.63 677.33 664.83 677.33 664.83 675.76 651.82 675.76 651.82 690.73 664.98 690.73 664.98 689.16 653.63 689.16 653.63 683.83"/>
        <path class="cls-1" d="M697.49,682.72c.49-.74.73-1.61.73-2.62,0-.84-.17-1.59-.5-2.24s-.83-1.16-1.48-1.54c-.65-.38-1.47-.57-2.44-.57h-9.41v14.97h1.81v-6.11h7.42l3.03,6.11h2.03l-3.21-6.44c.86-.31,1.53-.83,2.02-1.57ZM693.5,683.05h-7.31v-5.72h7.31c.63,0,1.15.11,1.57.34.42.23.75.55.97.96.23.41.34.91.34,1.47,0,.89-.25,1.6-.76,2.14s-1.21.81-2.12.81Z"/>
        <polygon class="cls-1" points="708.74 683.83 718.84 683.83 718.84 682.26 708.74 682.26 708.74 677.33 719.93 677.33 719.93 675.76 706.93 675.76 706.93 690.73 720.09 690.73 720.09 689.16 708.74 689.16 708.74 683.83"/>
        <rect class="cls-1" x="728.64" y="675.76" width="1.81" height="14.97"/>
        <path class="cls-1" d="M752.23,684.73c-.32-.48-.76-.88-1.31-1.2-.55-.32-1.17-.58-1.87-.77s-1.4-.37-2.13-.51c-.73-.15-1.43-.29-2.12-.44-.68-.14-1.3-.32-1.86-.52-.55-.2-.99-.46-1.32-.76-.33-.31-.49-.7-.49-1.18s.18-.87.55-1.21.91-.61,1.63-.8c.72-.19,1.63-.28,2.74-.28.89,0,1.65.11,2.29.33.64.22,1.13.51,1.48.87.35.36.52.78.52,1.24v.44h1.81v-.35c0-.6-.12-1.14-.37-1.64-.25-.49-.63-.93-1.15-1.3-.52-.37-1.17-.65-1.95-.85-.79-.2-1.71-.29-2.77-.29-1.19,0-2.21.1-3.04.29-.84.2-1.52.47-2.05.83-.53.36-.92.77-1.17,1.26-.25.48-.37,1-.37,1.57,0,.7.16,1.29.48,1.77.32.48.76.87,1.31,1.17s1.17.55,1.87.74c.69.2,1.4.36,2.13.5.73.14,1.44.28,2.13.44.69.15,1.31.34,1.85.56.55.22.98.5,1.31.84.33.34.49.78.49,1.32,0,.42-.11.79-.32,1.09-.21.31-.49.56-.84.76-.35.2-.74.36-1.18.48-.44.12-.89.2-1.35.24-.47.04-.92.07-1.35.07-1.02,0-1.92-.1-2.7-.31-.78-.2-1.38-.51-1.81-.92-.43-.41-.64-.92-.64-1.53,0-.12,0-.22.01-.32,0-.09.02-.18.03-.25h-1.83c-.01.06-.02.12-.02.19v.21c0,.9.19,1.64.57,2.21.38.57.9,1.03,1.56,1.36.66.34,1.42.57,2.27.71.85.14,1.73.21,2.65.21,1.34,0,2.52-.15,3.55-.44,1.03-.29,1.83-.77,2.4-1.43.57-.66.86-1.53.86-2.61,0-.71-.16-1.31-.48-1.79Z"/>
      </g>
      <g>
        <path class="cls-1" d="M341.24,679.49c.11-.29.21-.58.32-.86.1-.28.19-.53.26-.73h.17c-.01.25-.03.57-.03.96,0,.39-.01.79-.02,1.2,0,.41-.01.76-.01,1.07v9.6h1.83v-14.97h-2.73l-4.49,10.28c-.09.23-.19.5-.31.8s-.23.59-.34.88c-.11.29-.21.55-.3.76h-.13c-.07-.22-.17-.48-.28-.77-.12-.3-.23-.6-.35-.89-.12-.3-.23-.56-.33-.8l-4.47-10.26h-2.75v14.97h1.77v-9.6c0-.32,0-.68-.01-1.07,0-.39-.01-.78-.02-1.17,0-.39-.01-.72-.01-.99h.15c.07.23.16.48.25.75s.2.55.31.83c.11.28.22.55.34.8l4.6,10.45h1.66l4.61-10.45c.1-.23.21-.49.32-.79Z"/>
        <polygon class="cls-1" points="366.16 689.16 354.81 689.16 354.81 683.83 364.91 683.83 364.91 682.26 354.81 682.26 354.81 677.33 366 677.33 366 675.76 353 675.76 353 690.73 366.16 690.73 366.16 689.16"/>
        <polygon class="cls-1" points="362.9 671.83 362.9 671.74 360.74 671.74 358.52 674.62 360.07 674.62 362.9 671.83"/>
        <polygon class="cls-1" points="372.96 677.35 379.03 677.35 379.03 690.73 380.86 690.73 380.86 677.35 386.95 677.35 386.95 675.76 372.96 675.76 372.96 677.35"/>
        <path class="cls-1" d="M406.2,676.37c-1.25-.58-2.76-.87-4.52-.87s-3.23.29-4.5.87c-1.27.58-2.23,1.44-2.9,2.59-.67,1.14-1,2.57-1,4.29s.33,3.13,1,4.28,1.64,2.02,2.9,2.6c1.27.58,2.76.87,4.5.87s3.27-.29,4.52-.87c1.25-.58,2.21-1.45,2.89-2.6s1.01-2.58,1.01-4.28-.34-3.15-1.01-4.29c-.68-1.14-1.64-2-2.89-2.59ZM408.23,683.48c0,1.05-.16,1.95-.48,2.7-.32.75-.78,1.36-1.36,1.84-.59.48-1.28.83-2.07,1.06-.79.23-1.66.34-2.61.34s-1.84-.11-2.63-.34c-.79-.23-1.48-.58-2.07-1.06s-1.04-1.09-1.36-1.84c-.32-.75-.48-1.65-.48-2.7v-.48c0-1.05.16-1.95.48-2.71.32-.76.77-1.37,1.36-1.84.59-.47,1.28-.82,2.07-1.05.79-.23,1.67-.34,2.63-.34s1.82.11,2.61.34c.79.23,1.48.57,2.07,1.05.59.47,1.04,1.09,1.36,1.84.32.76.48,1.66.48,2.71v.48Z"/>
        <path class="cls-1" d="M429.43,676.56c-1.2-.54-2.65-.81-4.35-.81h-6.44v14.97h6.44c1.7,0,3.15-.27,4.35-.82s2.12-1.37,2.77-2.48c.65-1.11.97-2.5.97-4.19s-.32-3.11-.97-4.21c-.65-1.11-1.57-1.93-2.77-2.47ZM431.28,683.48c0,1.02-.15,1.89-.46,2.61-.31.72-.74,1.31-1.3,1.76-.56.45-1.22.78-1.99.99-.76.21-1.6.32-2.52.32h-4.56v-11.83h4.56c.93,0,1.77.11,2.53.32.76.21,1.41.54,1.97.99.56.45.99,1.04,1.3,1.76.31.72.46,1.6.46,2.63v.46Z"/>
        <path class="cls-1" d="M453.89,676.37c-1.25-.58-2.76-.87-4.52-.87s-3.23.29-4.5.87c-1.27.58-2.23,1.44-2.9,2.59-.67,1.14-1,2.57-1,4.29s.33,3.13,1,4.28c.67,1.15,1.64,2.02,2.9,2.6,1.27.58,2.76.87,4.5.87s3.27-.29,4.52-.87c1.25-.58,2.22-1.45,2.89-2.6s1.01-2.58,1.01-4.28-.34-3.15-1.01-4.29c-.68-1.14-1.64-2-2.89-2.59ZM455.92,683.48c0,1.05-.16,1.95-.48,2.7-.32.75-.77,1.36-1.36,1.84-.59.48-1.28.83-2.07,1.06-.79.23-1.66.34-2.61.34s-1.84-.11-2.63-.34c-.79-.23-1.48-.58-2.07-1.06s-1.04-1.09-1.36-1.84c-.32-.75-.48-1.65-.48-2.7v-.48c0-1.05.16-1.95.48-2.71.32-.76.77-1.37,1.36-1.84.59-.47,1.28-.82,2.07-1.05.79-.23,1.67-.34,2.63-.34s1.81.11,2.61.34c.79.23,1.48.57,2.07,1.05.59.47,1.04,1.09,1.36,1.84.32.76.48,1.66.48,2.71v.48Z"/>
      </g>
    </g>
    <g>
      <path class="cls-1" d="M383.47,637.19c-.32-1.01-.64-2-.98-2.92l-5.56-14.75c-2.85-7.57-6.5-11.89-12.15-14.11,12.28-4.06,19.23-12.12,19.23-22.52,0-23.47-22.56-23.47-37.5-23.47h-23.53l2.11,1.9c1.96,1.77,2.66,4.56,2.66,10.68v64.95c0,6.28-.67,9.01-2.66,10.8l-2.11,1.9h17.78l-2.11-1.9c-1.99-1.79-2.66-4.52-2.66-10.8v-28.9h15.84c8.77,0,13.18,3.42,16.88,13.09l5.68,14.76c1.08,2.78,3.61,9.28,1.18,11.93l-1.68,1.83h19.12l-3.38-2.03c-3.54-2.12-4.94-6.54-6.18-10.44ZM336.01,564.04l10.39.11c17.17.12,28.43,1.49,28.43,18.74s-15.59,20.56-28.66,20.56h-10.16v-39.41Z"/>
      <polygon class="cls-1" points="478.35 536.63 449.88 541.78 449.88 545.13 484.58 545.13 484.58 542.85 478.35 536.63"/>
      <path class="cls-1" d="M466.39,558.7c-24.34,0-42.7,19.76-42.7,45.96s18.35,45.84,42.7,45.84,42.7-19.71,42.7-45.84-18.35-45.96-42.7-45.96ZM466.39,645.79c-19.1,0-33.5-17.73-33.5-41.24s14.09-41.12,33.5-41.12,33.5,17.29,33.5,41.12-14.4,41.24-33.5,41.24Z"/>
      <path class="cls-1" d="M538.25,570.56h2.15l.3-.63c1.56-3.33,9.79-5.9,15.82-5.9h10.64v72.93c0,6.28-.67,9.01-2.66,10.8l-2.11,1.9h18.02l-2.11-1.9c-1.99-1.79-2.66-4.52-2.66-10.8l-.12-72.93h12.57c6.09,0,14.38,2.58,15.94,5.9l.3.63h2.15v-11.13h-68.22v11.13Z"/>
      <path class="cls-1" d="M636.46,570.56h2.15l.29-.63c1.56-3.33,9.79-5.9,15.82-5.9h10.64v72.93c0,6.28-.67,9.01-2.66,10.8l-2.11,1.9h18.02l-2.11-1.9c-1.99-1.79-2.66-4.52-2.66-10.8l-.12-72.93h12.57c6.09,0,14.38,2.58,15.95,5.9l.29.63h2.15v-11.13h-68.22v11.13Z"/>
      <path class="cls-1" d="M752.22,636.96v-64.83c0-6.28.67-9.01,2.66-10.8l2.11-1.9h-18.02l2.11,1.9c1.99,1.79,2.66,4.52,2.66,10.8v64.83c0,6.28-.67,9.01-2.66,10.8l-2.11,1.9h18.02l-2.11-1.9c-1.99-1.79-2.66-4.52-2.66-10.8Z"/>
    </g>
  </g>
</svg>